<svg xmlns="http://www.w3.org/2000/svg" viewBox="0 0 1600 900" width="1600" height="900" role="img" aria-label="Ableton MCP">
  <defs>
    <radialGradient id="glow" cx="80%" cy="16%" r="72%">
      <stop offset="0%" stop-color="#f59e0b" stop-opacity="0.22"/>
      <stop offset="55%" stop-color="#fbbf24" stop-opacity="0.06"/>
      <stop offset="100%" stop-color="#0a0e1a" stop-opacity="0"/>
    </radialGradient>
    <linearGradient id="amber" x1="0" y1="0" x2="1" y2="0">
      <stop offset="0%" stop-color="#f59e0b"/><stop offset="100%" stop-color="#fbbf24"/>
    </linearGradient>
  </defs>
  <rect width="1600" height="900" fill="#0a0e1a"/>
  <rect width="1600" height="900" fill="url(#glow)"/>
  <g stroke="#f59e0b" stroke-opacity="0.05" stroke-width="1">
    <path d="M0 225H1600M0 450H1600M0 675H1600M400 0V900M800 0V900M1200 0V900"/>
  </g>
  <rect width="1600" height="10" fill="url(#amber)"/>
  <g font-family="ui-sans-serif,system-ui,Segoe UI,Helvetica,Arial,sans-serif">
<g>
  <rect x="520" y="180" width="560" height="300" rx="12" fill="#0d1320" stroke="#1f2937" stroke-width="2"/>
  <rect x="540" y="200" width="88" height="52" rx="7" fill="#f59e0b" stroke="#0a0e1a" stroke-width="2"/>
  <rect x="540" y="270" width="88" height="52" rx="7" fill="#222d42" stroke="#0a0e1a" stroke-width="2"/>
  <rect x="540" y="340" width="88" height="52" rx="7" fill="#222d42" stroke="#0a0e1a" stroke-width="2"/>
  <rect x="540" y="410" width="88" height="52" rx="7" fill="#f59e0b" stroke="#0a0e1a" stroke-width="2"/>
  <rect x="648" y="200" width="88" height="52" rx="7" fill="#222d42" stroke="#0a0e1a" stroke-width="2"/>
  <rect x="648" y="270" width="88" height="52" rx="7" fill="#222d42" stroke="#0a0e1a" stroke-width="2"/>
  <rect x="648" y="340" width="88" height="52" rx="7" fill="#f59e0b" stroke="#0a0e1a" stroke-width="2"/>
  <rect x="648" y="410" width="88" height="52" rx="7" fill="#222d42" stroke="#0a0e1a" stroke-width="2"/>
  <rect x="756" y="200" width="88" height="52" rx="7" fill="#222d42" stroke="#0a0e1a" stroke-width="2"/>
  <rect x="756" y="270" width="88" height="52" rx="7" fill="#f59e0b" stroke="#0a0e1a" stroke-width="2"/>
  <rect x="756" y="340" width="88" height="52" rx="7" fill="#222d42" stroke="#0a0e1a" stroke-width="2"/>
  <rect x="756" y="410" width="88" height="52" rx="7" fill="#222d42" stroke="#0a0e1a" stroke-width="2"/>
  <rect x="864" y="200" width="88" height="52" rx="7" fill="#f59e0b" stroke="#0a0e1a" stroke-width="2"/>
  <rect x="864" y="270" width="88" height="52" rx="7" fill="#222d42" stroke="#0a0e1a" stroke-width="2"/>
  <rect x="864" y="340" width="88" height="52" rx="7" fill="#222d42" stroke="#0a0e1a" stroke-width="2"/>
  <rect x="864" y="410" width="88" height="52" rx="7" fill="#f59e0b" stroke="#0a0e1a" stroke-width="2"/>
  <rect x="972" y="200" width="88" height="52" rx="7" fill="#222d42" stroke="#0a0e1a" stroke-width="2"/>
  <rect x="972" y="270" width="88" height="52" rx="7" fill="#222d42" stroke="#0a0e1a" stroke-width="2"/>
  <rect x="972" y="340" width="88" height="52" rx="7" fill="#f59e0b" stroke="#0a0e1a" stroke-width="2"/>
  <rect x="972" y="410" width="88" height="52" rx="7" fill="#222d42" stroke="#0a0e1a" stroke-width="2"/>
<path d="M520 528 q40 -60 80 0 t80 0 t80 0 t80 0 t80 0 t80 0 t80 0" fill="none" stroke="#fbbf24" stroke-width="4" opacity="0.9"/>
</g>
  </g>
  <text x="112" y="688" font-family="ui-sans-serif,system-ui,Segoe UI,Helvetica,Arial" font-size="30" letter-spacing="6" font-weight="700" fill="url(#amber)">MCP INTEGRATION</text>
  <text x="106" y="788" font-family="Georgia,Times New Roman,serif" font-size="76" font-weight="700" fill="#f8fafc">Ableton MCP</text>
</svg>
