<svg xmlns="http://www.w3.org/2000/svg" viewBox="0 0 1600 900" width="1600" height="900" role="img" aria-label="AI Authoring">
  <defs>
    <radialGradient id="glow" cx="80%" cy="16%" r="72%">
      <stop offset="0%" stop-color="#f59e0b" stop-opacity="0.22"/>
      <stop offset="55%" stop-color="#fbbf24" stop-opacity="0.06"/>
      <stop offset="100%" stop-color="#0a0e1a" stop-opacity="0"/>
    </radialGradient>
    <linearGradient id="amber" x1="0" y1="0" x2="1" y2="0">
      <stop offset="0%" stop-color="#f59e0b"/><stop offset="100%" stop-color="#fbbf24"/>
    </linearGradient>
  </defs>
  <rect width="1600" height="900" fill="#0a0e1a"/>
  <rect width="1600" height="900" fill="url(#glow)"/>
  <g stroke="#f59e0b" stroke-opacity="0.05" stroke-width="1">
    <path d="M0 225H1600M0 450H1600M0 675H1600M400 0V900M800 0V900M1200 0V900"/>
  </g>
  <rect width="1600" height="10" fill="url(#amber)"/>
  <g font-family="ui-sans-serif,system-ui,Segoe UI,Helvetica,Arial,sans-serif">
<g fill="none" stroke="#3b4761" stroke-width="3">
  <path d="M800 222 V262 M560 308 V288 H1040 V308 M800 288 V308"/>
  <path d="M560 352 L770 428 M800 354 V428 M1040 352 L830 428"/>
</g>
<rect x="664" y="152" width="272" height="70" rx="14" fill="#111827" stroke="#f59e0b" stroke-width="3"/>
<text x="800" y="195" text-anchor="middle" font-size="28" fill="#f8fafc">orchestrator</text>
<g text-anchor="middle" font-size="22" fill="#cbd5e1">
  <circle cx="560" cy="330" r="24" fill="#0a0e1a" stroke="#f59e0b" stroke-width="3"/>
  <circle cx="800" cy="330" r="24" fill="#0a0e1a" stroke="#f59e0b" stroke-width="3"/>
  <circle cx="1040" cy="330" r="24" fill="#0a0e1a" stroke="#f59e0b" stroke-width="3"/>
  <text x="800" y="392">isolated skills</text>
</g>
<rect x="686" y="430" width="228" height="78" rx="14" fill="#1a2234" stroke="#fbbf24" stroke-width="3"/>
<text x="800" y="478" text-anchor="middle" font-size="26" fill="#fbbf24">HARD GATE</text>
<polyline points="1120,476 1152,508 1216,432" fill="none" stroke="#f59e0b" stroke-width="9" stroke-linecap="round" stroke-linejoin="round"/>
<text x="1168" y="556" text-anchor="middle" font-size="24" fill="#9ca3af">0 false-passes</text>
  </g>
  <text x="112" y="688" font-family="ui-sans-serif,system-ui,Segoe UI,Helvetica,Arial" font-size="30" letter-spacing="6" font-weight="700" fill="url(#amber)">APPLIED AI · EVAL-DRIVEN</text>
  <text x="106" y="788" font-family="Georgia,Times New Roman,serif" font-size="76" font-weight="700" fill="#f8fafc">AI Authoring</text>
</svg>
