<svg xmlns="http://www.w3.org/2000/svg" viewBox="0 0 1600 900" width="1600" height="900" role="img" aria-label="Single Source of Truth">
  <defs>
    <radialGradient id="glow" cx="80%" cy="16%" r="72%">
      <stop offset="0%" stop-color="#f59e0b" stop-opacity="0.22"/>
      <stop offset="55%" stop-color="#fbbf24" stop-opacity="0.06"/>
      <stop offset="100%" stop-color="#0a0e1a" stop-opacity="0"/>
    </radialGradient>
    <linearGradient id="amber" x1="0" y1="0" x2="1" y2="0">
      <stop offset="0%" stop-color="#f59e0b"/><stop offset="100%" stop-color="#fbbf24"/>
    </linearGradient>
  </defs>
  <rect width="1600" height="900" fill="#0a0e1a"/>
  <rect width="1600" height="900" fill="url(#glow)"/>
  <g stroke="#f59e0b" stroke-opacity="0.05" stroke-width="1">
    <path d="M0 225H1600M0 450H1600M0 675H1600M400 0V900M800 0V900M1200 0V900"/>
  </g>
  <rect width="1600" height="10" fill="url(#amber)"/>
  <g font-family="ui-sans-serif,system-ui,Segoe UI,Helvetica,Arial,sans-serif">
<g fill="#111827" stroke="#3b4761" stroke-width="3">
  <rect x="250" y="210" width="150" height="190" rx="12"/>
  <rect x="250" y="320" width="150" height="190" rx="12" fill="#0d1320"/>
  <rect x="250" y="430" width="150" height="190" rx="12" fill="#0a0e1a"/>
</g>
<g stroke="#3b4761" stroke-width="2" opacity="0.8">
  <path d="M286 250 H364 M286 280 H364 M286 360 H364 M286 390 H344"/>
</g>
<g fill="none" stroke="#f59e0b" stroke-width="3">
  <path d="M410 300 C560 300 620 360 720 360 M410 410 C560 410 620 372 720 366"/>
</g>
<g fill="#3b4761"><path d="M720 360 l-22 -11 v22 z"/></g>
<rect x="740" y="250" width="230" height="230" rx="16" fill="#1a2234" stroke="#fbbf24" stroke-width="4"/>
<g stroke="#fbbf24" stroke-width="3" opacity="0.95"><path d="M786 300 H924 M786 336 H924 M786 372 H924 M786 408 H880"/></g>
<text x="855" y="520" text-anchor="middle" font-size="24" fill="#fbbf24">canonical</text>
<g fill="none" stroke="#f59e0b" stroke-width="2.5" opacity="0.7">
  <path d="M970 300 C1120 300 1120 250 1240 250 M970 380 C1120 380 1120 430 1240 430"/>
</g>
<g fill="#0a0e1a" stroke="#f59e0b" stroke-width="3"><circle cx="1260" cy="250" r="16"/><circle cx="1260" cy="430" r="16"/></g>
  </g>
  <text x="112" y="688" font-family="ui-sans-serif,system-ui,Segoe UI,Helvetica,Arial" font-size="30" letter-spacing="6" font-weight="700" fill="url(#amber)">INFORMATION ARCHITECTURE</text>
  <text x="106" y="788" font-family="Georgia,Times New Roman,serif" font-size="76" font-weight="700" fill="#f8fafc">Single Source of Truth</text>
</svg>
