<svg xmlns="http://www.w3.org/2000/svg" viewBox="0 0 1600 900" width="1600" height="900" role="img" aria-label="AI Grading">
  <defs>
    <radialGradient id="glow" cx="80%" cy="16%" r="72%">
      <stop offset="0%" stop-color="#f59e0b" stop-opacity="0.22"/>
      <stop offset="55%" stop-color="#fbbf24" stop-opacity="0.06"/>
      <stop offset="100%" stop-color="#0a0e1a" stop-opacity="0"/>
    </radialGradient>
    <linearGradient id="amber" x1="0" y1="0" x2="1" y2="0">
      <stop offset="0%" stop-color="#f59e0b"/><stop offset="100%" stop-color="#fbbf24"/>
    </linearGradient>
  </defs>
  <rect width="1600" height="900" fill="#0a0e1a"/>
  <rect width="1600" height="900" fill="url(#glow)"/>
  <g stroke="#f59e0b" stroke-opacity="0.05" stroke-width="1">
    <path d="M0 225H1600M0 450H1600M0 675H1600M400 0V900M800 0V900M1200 0V900"/>
  </g>
  <rect width="1600" height="10" fill="url(#amber)"/>
  <g font-family="ui-sans-serif,system-ui,Segoe UI,Helvetica,Arial,sans-serif">
<rect x="250" y="222" width="170" height="226" rx="12" fill="#111827" stroke="#f59e0b" stroke-width="3"/>
<g stroke="#3b4761" stroke-width="2"><path d="M284 264 H386 M284 294 H386 M284 324 H386 M284 354 H366"/></g>
<text x="335" y="482" text-anchor="middle" font-size="22" fill="#cbd5e1">submission</text>
<path d="M420 335 H494" stroke="#3b4761" stroke-width="3"/><path d="M494 335 l-20 -11 v22z" fill="#3b4761"/>
<rect x="500" y="222" width="360" height="226" rx="12" fill="#0d1320" stroke="#f59e0b" stroke-width="3"/>
<g font-size="20" fill="#cbd5e1">
  <text x="524" y="266">structure</text><rect x="694" y="250" width="140" height="16" rx="8" fill="#222d42"/><rect x="694" y="250" width="120" height="16" rx="8" fill="#f59e0b"/>
  <text x="524" y="308">accuracy</text><rect x="694" y="292" width="140" height="16" rx="8" fill="#222d42"/><rect x="694" y="292" width="128" height="16" rx="8" fill="#f59e0b"/>
  <text x="524" y="350">grounding</text><rect x="694" y="334" width="140" height="16" rx="8" fill="#222d42"/><rect x="694" y="334" width="74" height="16" rx="8" fill="#fbbf24"/>
  <text x="524" y="392">persona</text><rect x="694" y="376" width="140" height="16" rx="8" fill="#222d42"/><rect x="694" y="376" width="126" height="16" rx="8" fill="#f59e0b"/>
</g>
<circle cx="1010" cy="335" r="66" fill="#1a2234" stroke="#fbbf24" stroke-width="4"/>
<text x="1010" y="326" text-anchor="middle" font-size="46" font-weight="800" fill="#f8fafc">87</text>
<text x="1010" y="360" text-anchor="middle" font-size="18" fill="#9ca3af">/ 100</text>
<text x="1010" y="442" text-anchor="middle" font-size="20" fill="#9ca3af">quality gate</text>
  </g>
  <text x="112" y="688" font-family="ui-sans-serif,system-ui,Segoe UI,Helvetica,Arial" font-size="30" letter-spacing="6" font-weight="700" fill="url(#amber)">LLM EVALUATION</text>
  <text x="106" y="788" font-family="Georgia,Times New Roman,serif" font-size="76" font-weight="700" fill="#f8fafc">AI Grading</text>
</svg>
