<svg xmlns="http://www.w3.org/2000/svg" viewBox="0 0 1600 900" width="1600" height="900" role="img" aria-label="Scraper CI Orchestration">
  <defs>
    <radialGradient id="glow" cx="80%" cy="16%" r="72%">
      <stop offset="0%" stop-color="#f59e0b" stop-opacity="0.22"/>
      <stop offset="55%" stop-color="#fbbf24" stop-opacity="0.06"/>
      <stop offset="100%" stop-color="#0a0e1a" stop-opacity="0"/>
    </radialGradient>
    <linearGradient id="amber" x1="0" y1="0" x2="1" y2="0">
      <stop offset="0%" stop-color="#f59e0b"/><stop offset="100%" stop-color="#fbbf24"/>
    </linearGradient>
  </defs>
  <rect width="1600" height="900" fill="#0a0e1a"/>
  <rect width="1600" height="900" fill="url(#glow)"/>
  <g stroke="#f59e0b" stroke-opacity="0.05" stroke-width="1">
    <path d="M0 225H1600M0 450H1600M0 675H1600M400 0V900M800 0V900M1200 0V900"/>
  </g>
  <rect width="1600" height="10" fill="url(#amber)"/>
  <g font-family="ui-sans-serif,system-ui,Segoe UI,Helvetica,Arial,sans-serif">
<g fill="none" stroke="#3b4761" stroke-width="3">
  <path d="M392 360 H470"/>
  <path d="M620 360 C700 360 700 220 800 220 M620 360 C700 360 700 300 800 300 M620 360 H800 M620 360 C700 360 700 420 800 420 M620 360 C700 360 700 500 800 500"/>
  <path d="M980 220 C1080 220 1080 360 1160 360 M980 300 C1080 300 1080 360 1160 360 M980 360 H1160 M980 420 C1080 420 1080 360 1160 360 M980 500 C1080 500 1080 360 1160 360"/>
</g>
<rect x="250" y="324" width="170" height="72" rx="14" fill="#111827" stroke="#f59e0b" stroke-width="3"/>
<text x="335" y="368" text-anchor="middle" font-size="24" fill="#f8fafc">list</text>
<g text-anchor="middle" font-size="20" fill="#cbd5e1">
  <rect x="800" y="196" width="180" height="48" rx="9" fill="#0a0e1a" stroke="#f59e0b" stroke-width="2.5"/><text x="890" y="226">runner</text>
  <rect x="800" y="276" width="180" height="48" rx="9" fill="#0a0e1a" stroke="#f59e0b" stroke-width="2.5"/><text x="890" y="306">runner</text>
  <rect x="800" y="336" width="180" height="48" rx="9" fill="#0a0e1a" stroke="#f59e0b" stroke-width="2.5"/><text x="890" y="366">runner</text>
  <rect x="800" y="396" width="180" height="48" rx="9" fill="#0a0e1a" stroke="#f59e0b" stroke-width="2.5"/><text x="890" y="426">runner</text>
  <rect x="800" y="476" width="180" height="48" rx="9" fill="#0a0e1a" stroke="#f59e0b" stroke-width="2.5"/><text x="890" y="506">runner</text>
</g>
<rect x="1160" y="320" width="190" height="80" rx="14" fill="#1a2234" stroke="#fbbf24" stroke-width="3"/>
<text x="1255" y="356" text-anchor="middle" font-size="22" fill="#fbbf24">consolidate</text>
<text x="1255" y="384" text-anchor="middle" font-size="18" fill="#9ca3af">+ LFS commit</text>
  </g>
  <text x="112" y="688" font-family="ui-sans-serif,system-ui,Segoe UI,Helvetica,Arial" font-size="30" letter-spacing="6" font-weight="700" fill="url(#amber)">RELIABILITY ENGINEERING</text>
  <text x="106" y="788" font-family="Georgia,Times New Roman,serif" font-size="76" font-weight="700" fill="#f8fafc">Scraper CI Orchestration</text>
</svg>
