<svg xmlns="http://www.w3.org/2000/svg" viewBox="0 0 1600 900" width="1600" height="900" role="img" aria-label="Second Brain">
  <defs>
    <radialGradient id="glow" cx="80%" cy="16%" r="72%">
      <stop offset="0%" stop-color="#f59e0b" stop-opacity="0.22"/>
      <stop offset="55%" stop-color="#fbbf24" stop-opacity="0.06"/>
      <stop offset="100%" stop-color="#0a0e1a" stop-opacity="0"/>
    </radialGradient>
    <linearGradient id="amber" x1="0" y1="0" x2="1" y2="0">
      <stop offset="0%" stop-color="#f59e0b"/><stop offset="100%" stop-color="#fbbf24"/>
    </linearGradient>
  </defs>
  <rect width="1600" height="900" fill="#0a0e1a"/>
  <rect width="1600" height="900" fill="url(#glow)"/>
  <g stroke="#f59e0b" stroke-opacity="0.05" stroke-width="1">
    <path d="M0 225H1600M0 450H1600M0 675H1600M400 0V900M800 0V900M1200 0V900"/>
  </g>
  <rect width="1600" height="10" fill="url(#amber)"/>
  <g font-family="ui-sans-serif,system-ui,Segoe UI,Helvetica,Arial,sans-serif">
<g stroke="#3b4761" stroke-width="2.5" fill="none">
  <path d="M800 360 L620 250 M800 360 L980 250 M800 360 L600 470 M800 360 L1010 460 M800 360 L800 210"/>
  <path d="M620 250 L600 470 M980 250 L1010 460 M620 250 L800 210 M980 250 L800 210 M600 470 L800 540 M1010 460 L800 540"/>
  <path d="M620 250 L460 360 M980 250 L1150 350 M600 470 L470 540"/>
</g>
<g fill="#0a0e1a" stroke="#f59e0b" stroke-width="3">
  <circle cx="800" cy="360" r="30"/>
  <circle cx="620" cy="250" r="20"/><circle cx="980" cy="250" r="20"/>
  <circle cx="600" cy="470" r="20"/><circle cx="1010" cy="460" r="20"/>
  <circle cx="800" cy="210" r="16"/><circle cx="800" cy="540" r="16"/>
  <circle cx="460" cy="360" r="14"/><circle cx="1150" cy="350" r="14"/><circle cx="470" cy="540" r="14"/>
</g>
<circle cx="800" cy="360" r="13" fill="#f59e0b"/>
<circle cx="620" cy="250" r="9" fill="#fbbf24"/>
<circle cx="1010" cy="460" r="9" fill="#fbbf24"/>
  </g>
  <text x="112" y="688" font-family="ui-sans-serif,system-ui,Segoe UI,Helvetica,Arial" font-size="30" letter-spacing="6" font-weight="700" fill="url(#amber)">KNOWLEDGE ENGINEERING</text>
  <text x="106" y="788" font-family="Georgia,Times New Roman,serif" font-size="76" font-weight="700" fill="#f8fafc">Second Brain</text>
</svg>
