<svg xmlns="http://www.w3.org/2000/svg" viewBox="0 0 1600 900" width="1600" height="900" role="img" aria-label="Alex Chen">
  <defs>
    <radialGradient id="glow" cx="80%" cy="16%" r="72%">
      <stop offset="0%" stop-color="#f59e0b" stop-opacity="0.22"/>
      <stop offset="55%" stop-color="#fbbf24" stop-opacity="0.06"/>
      <stop offset="100%" stop-color="#0a0e1a" stop-opacity="0"/>
    </radialGradient>
    <linearGradient id="amber" x1="0" y1="0" x2="1" y2="0">
      <stop offset="0%" stop-color="#f59e0b"/><stop offset="100%" stop-color="#fbbf24"/>
    </linearGradient>
  </defs>
  <rect width="1600" height="900" fill="#0a0e1a"/>
  <rect width="1600" height="900" fill="url(#glow)"/>
  <g stroke="#f59e0b" stroke-opacity="0.05" stroke-width="1">
    <path d="M0 225H1600M0 450H1600M0 675H1600M400 0V900M800 0V900M1200 0V900"/>
  </g>
  <rect width="1600" height="10" fill="url(#amber)"/>
  <g font-family="ui-sans-serif,system-ui,Segoe UI,Helvetica,Arial,sans-serif">
<circle cx="420" cy="340" r="94" fill="#111827" stroke="#f59e0b" stroke-width="3"/>
<circle cx="420" cy="312" r="30" fill="none" stroke="#fbbf24" stroke-width="3"/>
<path d="M368 396 a52 42 0 0 1 104 0" fill="none" stroke="#fbbf24" stroke-width="3"/>
<text x="420" y="474" text-anchor="middle" font-size="22" fill="#cbd5e1">synthetic user</text>
<g fill="none" stroke="#3b4761" stroke-width="3"><path d="M530 320 H648"/></g>
<path d="M648 320 l-20 -11 v22z" fill="#3b4761"/>
<rect x="700" y="226" width="216" height="228" rx="12" fill="#111827" stroke="#f59e0b" stroke-width="3"/>
<g stroke="#3b4761" stroke-width="2"><path d="M732 268 H884 M732 296 H884 M732 352 H884 M732 380 H846"/></g>
<rect x="732" y="314" width="120" height="26" rx="6" fill="#3a2a08" stroke="#fbbf24" stroke-width="2"/>
<g fill="#1a2234" stroke="#fbbf24" stroke-width="2"><rect x="900" y="250" width="128" height="52" rx="10"/><rect x="934" y="372" width="128" height="52" rx="10"/></g>
<g fill="#fbbf24"><circle cx="934" cy="276" r="5"/><circle cx="956" cy="276" r="5"/><circle cx="978" cy="276" r="5"/><circle cx="968" cy="398" r="5"/><circle cx="990" cy="398" r="5"/><circle cx="1012" cy="398" r="5"/></g>
  </g>
  <text x="112" y="688" font-family="ui-sans-serif,system-ui,Segoe UI,Helvetica,Arial" font-size="30" letter-spacing="6" font-weight="700" fill="url(#amber)">SYNTHETIC USER</text>
  <text x="106" y="788" font-family="Georgia,Times New Roman,serif" font-size="76" font-weight="700" fill="#f8fafc">Alex Chen</text>
</svg>
