<svg xmlns="http://www.w3.org/2000/svg" viewBox="0 0 1600 900" width="1600" height="900" role="img" aria-label="B2B Commerce">
  <defs>
    <radialGradient id="glow" cx="80%" cy="16%" r="72%">
      <stop offset="0%" stop-color="#f59e0b" stop-opacity="0.22"/>
      <stop offset="55%" stop-color="#fbbf24" stop-opacity="0.06"/>
      <stop offset="100%" stop-color="#0a0e1a" stop-opacity="0"/>
    </radialGradient>
    <linearGradient id="amber" x1="0" y1="0" x2="1" y2="0">
      <stop offset="0%" stop-color="#f59e0b"/><stop offset="100%" stop-color="#fbbf24"/>
    </linearGradient>
  </defs>
  <rect width="1600" height="900" fill="#0a0e1a"/>
  <rect width="1600" height="900" fill="url(#glow)"/>
  <g stroke="#f59e0b" stroke-opacity="0.05" stroke-width="1">
    <path d="M0 225H1600M0 450H1600M0 675H1600M400 0V900M800 0V900M1200 0V900"/>
  </g>
  <rect width="1600" height="10" fill="url(#amber)"/>
  <g font-family="ui-sans-serif,system-ui,Segoe UI,Helvetica,Arial,sans-serif">
<g fill="none" stroke="#3b4761" stroke-width="3">
  <path d="M800 232 V286 M800 286 H560 V330 M800 286 H1040 V330 M800 286 V330"/>
  <path d="M560 376 V420 H470 V452 M560 420 H650 V452 M560 420 V452"/>
  <path d="M1040 376 V420 H950 V452 M1040 420 H1130 V452 M1040 420 V452"/>
</g>
<rect x="690" y="162" width="220" height="70" rx="14" fill="#1a2234" stroke="#fbbf24" stroke-width="3"/>
<text x="800" y="205" text-anchor="middle" font-size="26" fill="#fbbf24">business unit</text>
<g text-anchor="middle" font-size="22" fill="#cbd5e1">
  <rect x="470" y="330" width="180" height="48" rx="10" fill="#111827" stroke="#f59e0b" stroke-width="3"/><text x="560" y="360">division</text>
  <rect x="950" y="330" width="180" height="48" rx="10" fill="#111827" stroke="#f59e0b" stroke-width="3"/><text x="1040" y="360">division</text>
  <circle cx="470" cy="476" r="22" fill="#0a0e1a" stroke="#f59e0b" stroke-width="3"/>
  <circle cx="650" cy="476" r="22" fill="#0a0e1a" stroke="#f59e0b" stroke-width="3"/>
  <circle cx="950" cy="476" r="22" fill="#0a0e1a" stroke="#f59e0b" stroke-width="3"/>
  <circle cx="1130" cy="476" r="22" fill="#0a0e1a" stroke="#f59e0b" stroke-width="3"/>
  <text x="800" y="540">associates and permissions</text>
</g>
  </g>
  <text x="112" y="688" font-family="ui-sans-serif,system-ui,Segoe UI,Helvetica,Arial" font-size="30" letter-spacing="6" font-weight="700" fill="url(#amber)">LEARNING SYSTEMS</text>
  <text x="106" y="788" font-family="Georgia,Times New Roman,serif" font-size="76" font-weight="700" fill="#f8fafc">B2B Commerce</text>
</svg>
