<svg xmlns="http://www.w3.org/2000/svg" viewBox="0 0 1600 900" width="1600" height="900" role="img" aria-label="Bug-Reporting Pipeline">
  <defs>
    <radialGradient id="glow" cx="80%" cy="16%" r="72%">
      <stop offset="0%" stop-color="#f59e0b" stop-opacity="0.22"/>
      <stop offset="55%" stop-color="#fbbf24" stop-opacity="0.06"/>
      <stop offset="100%" stop-color="#0a0e1a" stop-opacity="0"/>
    </radialGradient>
    <linearGradient id="amber" x1="0" y1="0" x2="1" y2="0">
      <stop offset="0%" stop-color="#f59e0b"/><stop offset="100%" stop-color="#fbbf24"/>
    </linearGradient>
  </defs>
  <rect width="1600" height="900" fill="#0a0e1a"/>
  <rect width="1600" height="900" fill="url(#glow)"/>
  <g stroke="#f59e0b" stroke-opacity="0.05" stroke-width="1">
    <path d="M0 225H1600M0 450H1600M0 675H1600M400 0V900M800 0V900M1200 0V900"/>
  </g>
  <rect width="1600" height="10" fill="url(#amber)"/>
  <g font-family="ui-sans-serif,system-ui,Segoe UI,Helvetica,Arial,sans-serif">
<g fill="none" stroke="#3b4761" stroke-width="3">
  <path d="M362 360 H440 M602 360 H680 M842 360 H920 M1082 360 H1160"/>
</g>
<g fill="#3b4761"><path d="M440 360 l-20 -11 v22z"/><path d="M680 360 l-20 -11 v22z"/><path d="M920 360 l-20 -11 v22z"/><path d="M1160 360 l-20 -11 v22z"/></g>
<g text-anchor="middle" font-size="22" fill="#cbd5e1">
  <circle cx="300" cy="360" r="42" fill="#0a0e1a" stroke="#f59e0b" stroke-width="3"/><text x="300" y="430">trigger</text>
  <circle cx="540" cy="360" r="42" fill="#0a0e1a" stroke="#f59e0b" stroke-width="3"/><text x="540" y="430">upload</text>
  <circle cx="780" cy="360" r="42" fill="#0a0e1a" stroke="#f59e0b" stroke-width="3"/><text x="780" y="430">issue</text>
  <circle cx="1020" cy="360" r="42" fill="#0a0e1a" stroke="#fbbf24" stroke-width="3"/><text x="1020" y="430">webhook</text>
  <circle cx="1260" cy="360" r="42" fill="#0a0e1a" stroke="#f59e0b" stroke-width="3"/><text x="1260" y="430">GC</text>
</g>
<g transform="translate(1004,338)" fill="#fbbf24"><rect x="0" y="12" width="32" height="26" rx="4"/><path d="M6 12 v-7 a10 10 0 0 1 20 0 v7" fill="none" stroke="#fbbf24" stroke-width="4"/></g>
  </g>
  <text x="112" y="688" font-family="ui-sans-serif,system-ui,Segoe UI,Helvetica,Arial" font-size="30" letter-spacing="6" font-weight="700" fill="url(#amber)">DISTRIBUTED SYSTEMS</text>
  <text x="106" y="788" font-family="Georgia,Times New Roman,serif" font-size="76" font-weight="700" fill="#f8fafc">Bug-Reporting Pipeline</text>
</svg>
