<svg xmlns="http://www.w3.org/2000/svg" viewBox="0 0 1600 900" width="1600" height="900" role="img" aria-label="Content Drift">
  <defs>
    <radialGradient id="glow" cx="80%" cy="16%" r="72%">
      <stop offset="0%" stop-color="#f59e0b" stop-opacity="0.22"/>
      <stop offset="55%" stop-color="#fbbf24" stop-opacity="0.06"/>
      <stop offset="100%" stop-color="#0a0e1a" stop-opacity="0"/>
    </radialGradient>
    <linearGradient id="amber" x1="0" y1="0" x2="1" y2="0">
      <stop offset="0%" stop-color="#f59e0b"/><stop offset="100%" stop-color="#fbbf24"/>
    </linearGradient>
  </defs>
  <rect width="1600" height="900" fill="#0a0e1a"/>
  <rect width="1600" height="900" fill="url(#glow)"/>
  <g stroke="#f59e0b" stroke-opacity="0.05" stroke-width="1">
    <path d="M0 225H1600M0 450H1600M0 675H1600M400 0V900M800 0V900M1200 0V900"/>
  </g>
  <rect width="1600" height="10" fill="url(#amber)"/>
  <g font-family="ui-sans-serif,system-ui,Segoe UI,Helvetica,Arial,sans-serif">
<g fill="none" stroke="#3b4761" stroke-width="3"><path d="M404 320 H466 M740 320 H804"/></g>
<g fill="#3b4761"><path d="M466 320 l-20 -11 v22z"/><path d="M804 320 l-20 -11 v22z"/></g>
<rect x="240" y="232" width="164" height="200" rx="12" fill="#111827" stroke="#f59e0b" stroke-width="3"/>
<g stroke="#3b4761" stroke-width="2"><path d="M272 274 H372 M272 302 H372 M272 330 H352"/></g>
<text x="322" y="466" text-anchor="middle" font-size="22" fill="#cbd5e1">release note</text>
<g text-anchor="middle" font-size="20" fill="#cbd5e1">
  <rect x="494" y="248" width="246" height="42" rx="9" fill="#0a0e1a" stroke="#f59e0b" stroke-width="2.5"/><text x="617" y="276">analyze impact</text>
  <rect x="494" y="298" width="246" height="42" rx="9" fill="#0a0e1a" stroke="#f59e0b" stroke-width="2.5"/><text x="617" y="326">map to sections</text>
  <rect x="494" y="348" width="246" height="42" rx="9" fill="#0a0e1a" stroke="#f59e0b" stroke-width="2.5"/><text x="617" y="376">generate update</text>
</g>
<rect x="806" y="222" width="206" height="220" rx="12" fill="#111827" stroke="#f59e0b" stroke-width="3"/>
<g stroke="#3b4761" stroke-width="2"><path d="M838 264 H980 M838 292 H980"/></g>
<rect x="838" y="312" width="140" height="32" rx="6" fill="#3a2a08" stroke="#fbbf24" stroke-width="2"/>
<text x="908" y="335" text-anchor="middle" font-size="18" fill="#fbbf24">drift flagged</text>
<g stroke="#3b4761" stroke-width="2"><path d="M838 372 H980 M838 400 H950"/></g>
<polyline points="1058,318 1086,346 1140,288" fill="none" stroke="#10b981" stroke-width="7" stroke-linecap="round" stroke-linejoin="round"/>
<text x="1098" y="392" text-anchor="middle" font-size="22" fill="#9ca3af">review</text>
  </g>
  <text x="112" y="688" font-family="ui-sans-serif,system-ui,Segoe UI,Helvetica,Arial" font-size="30" letter-spacing="6" font-weight="700" fill="url(#amber)">AGENTIC CI</text>
  <text x="106" y="788" font-family="Georgia,Times New Roman,serif" font-size="76" font-weight="700" fill="#f8fafc">Content Drift</text>
</svg>
