<svg xmlns="http://www.w3.org/2000/svg" viewBox="0 0 1600 900" width="1600" height="900" role="img" aria-label="Firestore Security">
  <defs>
    <radialGradient id="glow" cx="80%" cy="16%" r="72%">
      <stop offset="0%" stop-color="#f59e0b" stop-opacity="0.22"/>
      <stop offset="55%" stop-color="#fbbf24" stop-opacity="0.06"/>
      <stop offset="100%" stop-color="#0a0e1a" stop-opacity="0"/>
    </radialGradient>
    <linearGradient id="amber" x1="0" y1="0" x2="1" y2="0">
      <stop offset="0%" stop-color="#f59e0b"/><stop offset="100%" stop-color="#fbbf24"/>
    </linearGradient>
  </defs>
  <rect width="1600" height="900" fill="#0a0e1a"/>
  <rect width="1600" height="900" fill="url(#glow)"/>
  <g stroke="#f59e0b" stroke-opacity="0.05" stroke-width="1">
    <path d="M0 225H1600M0 450H1600M0 675H1600M400 0V900M800 0V900M1200 0V900"/>
  </g>
  <rect width="1600" height="10" fill="url(#amber)"/>
  <g font-family="ui-sans-serif,system-ui,Segoe UI,Helvetica,Arial,sans-serif">
<rect x="610" y="170" width="380" height="380" rx="18" fill="#111827" stroke="#f59e0b" stroke-width="3"/>
<g font-size="24" fill="#cbd5e1">
  <rect x="642" y="210" width="316" height="52" rx="9" fill="#0a0e1a" stroke="#3b4761" stroke-width="2"/>
  <text x="664" y="244">displayName</text>
  <polyline points="906,238 920,252 944,222" fill="none" stroke="#10b981" stroke-width="6" stroke-linecap="round" stroke-linejoin="round"/>
  <rect x="642" y="278" width="316" height="52" rx="9" fill="#0a0e1a" stroke="#3b4761" stroke-width="2"/>
  <text x="664" y="312">subscriptionTier</text>
  <rect x="642" y="346" width="316" height="52" rx="9" fill="#0a0e1a" stroke="#3b4761" stroke-width="2"/>
  <text x="664" y="380">creditBalance</text>
  <rect x="642" y="414" width="316" height="52" rx="9" fill="#0a0e1a" stroke="#3b4761" stroke-width="2"/>
  <text x="664" y="448">stripeCustomerId</text>
</g>
<g fill="#fbbf24">
  <g transform="translate(912,290)"><rect x="0" y="14" width="30" height="24" rx="4"/><path d="M6 14 v-8 a9 9 0 0 1 18 0 v8" fill="none" stroke="#fbbf24" stroke-width="4"/></g>
  <g transform="translate(912,358)"><rect x="0" y="14" width="30" height="24" rx="4"/><path d="M6 14 v-8 a9 9 0 0 1 18 0 v8" fill="none" stroke="#fbbf24" stroke-width="4"/></g>
  <g transform="translate(912,426)"><rect x="0" y="14" width="30" height="24" rx="4"/><path d="M6 14 v-8 a9 9 0 0 1 18 0 v8" fill="none" stroke="#fbbf24" stroke-width="4"/></g>
</g>
  </g>
  <text x="112" y="688" font-family="ui-sans-serif,system-ui,Segoe UI,Helvetica,Arial" font-size="30" letter-spacing="6" font-weight="700" fill="url(#amber)">SECURITY + EVALS</text>
  <text x="106" y="788" font-family="Georgia,Times New Roman,serif" font-size="76" font-weight="700" fill="#f8fafc">Firestore Security</text>
</svg>
