<svg xmlns="http://www.w3.org/2000/svg" viewBox="0 0 1600 900" width="1600" height="900" role="img" aria-label="Geocoding Campaign">
  <defs>
    <radialGradient id="glow" cx="80%" cy="16%" r="72%">
      <stop offset="0%" stop-color="#f59e0b" stop-opacity="0.22"/>
      <stop offset="55%" stop-color="#fbbf24" stop-opacity="0.06"/>
      <stop offset="100%" stop-color="#0a0e1a" stop-opacity="0"/>
    </radialGradient>
    <linearGradient id="amber" x1="0" y1="0" x2="1" y2="0">
      <stop offset="0%" stop-color="#f59e0b"/><stop offset="100%" stop-color="#fbbf24"/>
    </linearGradient>
  </defs>
  <rect width="1600" height="900" fill="#0a0e1a"/>
  <rect width="1600" height="900" fill="url(#glow)"/>
  <g stroke="#f59e0b" stroke-opacity="0.05" stroke-width="1">
    <path d="M0 225H1600M0 450H1600M0 675H1600M400 0V900M800 0V900M1200 0V900"/>
  </g>
  <rect width="1600" height="10" fill="url(#amber)"/>
  <g font-family="ui-sans-serif,system-ui,Segoe UI,Helvetica,Arial,sans-serif">
<rect x="560" y="180" width="480" height="330" rx="14" fill="#0d1320" stroke="#1f2937" stroke-width="2"/>
<g stroke="#1f2937" stroke-width="1.5">
  <path d="M560 260 H1040 M560 340 H1040 M560 420 H1040 M660 180 V510 M760 180 V510 M860 180 V510 M960 180 V510"/>
</g>
<g stroke="#3b4761" stroke-width="3" fill="none" opacity="0.7">
  <path d="M600 300 q60 -40 120 10 t140 -20"/>
</g>
<g>
  <path d="M700 300 c0 -28 -44 -28 -44 0 c0 22 44 52 22 52 c-22 0 22 -30 22 -52z" fill="#3b4761"/>
  <path d="M880 380 c0 -28 -44 -28 -44 0 c0 22 44 52 22 52 c-22 0 22 -30 22 -52z" fill="#3b4761"/>
  <path d="M820 270 c0 -34 -52 -34 -52 0 c0 26 52 60 26 60 c-26 0 26 -34 26 -60z" fill="#f59e0b"/>
  <circle cx="794" cy="270" r="11" fill="#0a0e1a"/>
</g>
<g fill="none" stroke="#fbbf24" stroke-width="3" opacity="0.8">
  <circle cx="794" cy="270" r="44"/><path d="M794 214 V236 M794 304 V326 M738 270 H760 M828 270 H850"/>
</g>
  </g>
  <text x="112" y="688" font-family="ui-sans-serif,system-ui,Segoe UI,Helvetica,Arial" font-size="30" letter-spacing="6" font-weight="700" fill="url(#amber)">DATA QUALITY</text>
  <text x="106" y="788" font-family="Georgia,Times New Roman,serif" font-size="76" font-weight="700" fill="#f8fafc">Geocoding Campaign</text>
</svg>
