<svg xmlns="http://www.w3.org/2000/svg" viewBox="0 0 1600 900" width="1600" height="900" role="img" aria-label="Modular Paths">
  <defs>
    <radialGradient id="glow" cx="80%" cy="16%" r="72%">
      <stop offset="0%" stop-color="#f59e0b" stop-opacity="0.22"/>
      <stop offset="55%" stop-color="#fbbf24" stop-opacity="0.06"/>
      <stop offset="100%" stop-color="#0a0e1a" stop-opacity="0"/>
    </radialGradient>
    <linearGradient id="amber" x1="0" y1="0" x2="1" y2="0">
      <stop offset="0%" stop-color="#f59e0b"/><stop offset="100%" stop-color="#fbbf24"/>
    </linearGradient>
  </defs>
  <rect width="1600" height="900" fill="#0a0e1a"/>
  <rect width="1600" height="900" fill="url(#glow)"/>
  <g stroke="#f59e0b" stroke-opacity="0.05" stroke-width="1">
    <path d="M0 225H1600M0 450H1600M0 675H1600M400 0V900M800 0V900M1200 0V900"/>
  </g>
  <rect width="1600" height="10" fill="url(#amber)"/>
  <g font-family="ui-sans-serif,system-ui,Segoe UI,Helvetica,Arial,sans-serif">
<rect x="244" y="320" width="156" height="64" rx="12" fill="#1a2234" stroke="#fbbf24" stroke-width="3"/>
<text x="322" y="358" text-anchor="middle" font-size="22" fill="#fbbf24">academy</text>
<g fill="none" stroke="#3b4761" stroke-width="3"><path d="M400 352 H452 V220 H540 M452 352 H540 M452 352 V484 H540"/></g>
<g>
  <rect x="540" y="196" width="150" height="48" rx="9" fill="#111827" stroke="#f59e0b" stroke-width="2.5"/>
  <rect x="540" y="328" width="150" height="48" rx="9" fill="#111827" stroke="#f59e0b" stroke-width="2.5"/>
  <rect x="540" y="460" width="150" height="48" rx="9" fill="#111827" stroke="#f59e0b" stroke-width="2.5"/>
</g>
<g fill="none" stroke="#3b4761" stroke-width="2"><path d="M690 220 H726 M690 352 H726 M690 484 H726"/></g>
<g fill="#0a0e1a" stroke="#f59e0b" stroke-width="2.5">
  <rect x="728" y="200" width="40" height="40" rx="7"/><rect x="778" y="200" width="40" height="40" rx="7"/><rect x="828" y="200" width="40" height="40" rx="7"/>
  <rect x="728" y="332" width="40" height="40" rx="7"/><rect x="778" y="332" width="40" height="40" rx="7"/><rect x="828" y="332" width="40" height="40" rx="7"/><rect x="878" y="332" width="40" height="40" rx="7"/>
  <rect x="728" y="464" width="40" height="40" rx="7"/><rect x="778" y="464" width="40" height="40" rx="7"/>
</g>
<text x="1010" y="360" text-anchor="middle" font-size="22" fill="#9ca3af">9 paths · 30+ modules</text>
  </g>
  <text x="112" y="688" font-family="ui-sans-serif,system-ui,Segoe UI,Helvetica,Arial" font-size="30" letter-spacing="6" font-weight="700" fill="url(#amber)">INFORMATION ARCHITECTURE</text>
  <text x="106" y="788" font-family="Georgia,Times New Roman,serif" font-size="76" font-weight="700" fill="#f8fafc">Modular Paths</text>
</svg>
