<svg xmlns="http://www.w3.org/2000/svg" viewBox="0 0 1600 900" width="1600" height="900" role="img" aria-label="Stripe Billing">
  <defs>
    <radialGradient id="glow" cx="80%" cy="16%" r="72%">
      <stop offset="0%" stop-color="#f59e0b" stop-opacity="0.22"/>
      <stop offset="55%" stop-color="#fbbf24" stop-opacity="0.06"/>
      <stop offset="100%" stop-color="#0a0e1a" stop-opacity="0"/>
    </radialGradient>
    <linearGradient id="amber" x1="0" y1="0" x2="1" y2="0">
      <stop offset="0%" stop-color="#f59e0b"/><stop offset="100%" stop-color="#fbbf24"/>
    </linearGradient>
  </defs>
  <rect width="1600" height="900" fill="#0a0e1a"/>
  <rect width="1600" height="900" fill="url(#glow)"/>
  <g stroke="#f59e0b" stroke-opacity="0.05" stroke-width="1">
    <path d="M0 225H1600M0 450H1600M0 675H1600M400 0V900M800 0V900M1200 0V900"/>
  </g>
  <rect width="1600" height="10" fill="url(#amber)"/>
  <g font-family="ui-sans-serif,system-ui,Segoe UI,Helvetica,Arial,sans-serif">
<circle cx="800" cy="360" r="150" fill="none" stroke="#1f2937" stroke-width="2"/>
<path d="M800 210 A150 150 0 1 1 690 252" fill="none" stroke="#f59e0b" stroke-width="6" stroke-linecap="round"/>
<path d="M690 252 l-26 -2 l16 30 z" fill="#f59e0b"/>
<text x="800" y="392" text-anchor="middle" font-size="120" font-weight="800" fill="#f8fafc">$</text>
<g fill="none" stroke="#3b4761" stroke-width="3">
  <path d="M360 360 H600"/>
</g>
<path d="M360 360 l-22 -12 v24 z" fill="#3b4761"/>
<rect x="250" y="330" width="120" height="60" rx="12" fill="#111827" stroke="#f59e0b" stroke-width="3"/>
<text x="310" y="367" text-anchor="middle" font-size="22" fill="#cbd5e1">event</text>
<path d="M1190 300 l70 26 v44 c0 50 -36 78 -70 92 c-34 -14 -70 -42 -70 -92 v-44 z" fill="#1a2234" stroke="#fbbf24" stroke-width="3"/>
<text x="1190" y="392" text-anchor="middle" font-size="22" fill="#fbbf24">idempotent</text>
  </g>
  <text x="112" y="688" font-family="ui-sans-serif,system-ui,Segoe UI,Helvetica,Arial" font-size="30" letter-spacing="6" font-weight="700" fill="url(#amber)">PRODUCTION ENGINEERING</text>
  <text x="106" y="788" font-family="Georgia,Times New Roman,serif" font-size="76" font-weight="700" fill="#f8fafc">Stripe Billing</text>
</svg>
