<svg xmlns="http://www.w3.org/2000/svg" viewBox="0 0 1600 900" width="1600" height="900" role="img" aria-label="Voice to Prototype">
  <defs>
    <radialGradient id="glow" cx="80%" cy="16%" r="72%">
      <stop offset="0%" stop-color="#f59e0b" stop-opacity="0.22"/>
      <stop offset="55%" stop-color="#fbbf24" stop-opacity="0.06"/>
      <stop offset="100%" stop-color="#0a0e1a" stop-opacity="0"/>
    </radialGradient>
    <linearGradient id="amber" x1="0" y1="0" x2="1" y2="0">
      <stop offset="0%" stop-color="#f59e0b"/><stop offset="100%" stop-color="#fbbf24"/>
    </linearGradient>
  </defs>
  <rect width="1600" height="900" fill="#0a0e1a"/>
  <rect width="1600" height="900" fill="url(#glow)"/>
  <g stroke="#f59e0b" stroke-opacity="0.05" stroke-width="1">
    <path d="M0 225H1600M0 450H1600M0 675H1600M400 0V900M800 0V900M1200 0V900"/>
  </g>
  <rect width="1600" height="10" fill="url(#amber)"/>
  <g font-family="ui-sans-serif,system-ui,Segoe UI,Helvetica,Arial,sans-serif">
<g fill="none" stroke="#3b4761" stroke-width="3">
  <path d="M392 360 H470 M712 360 H760 M1002 360 H1050"/>
</g>
<g fill="#3b4761"><path d="M470 360 l-20 -11 v22 z"/><path d="M760 360 l-20 -11 v22 z"/><path d="M1050 360 l-20 -11 v22 z"/></g>
<rect x="210" y="312" width="182" height="96" rx="14" fill="#111827" stroke="#f59e0b" stroke-width="3"/>
<text x="301" y="352" text-anchor="middle" font-size="24" fill="#f8fafc">labelled</text>
<text x="301" y="382" text-anchor="middle" font-size="24" fill="#cbd5e1">issue</text>
<path d="M590 300 l60 22 v40 c0 44 -30 68 -60 80 c-30 -12 -60 -36 -60 -80 v-40 z" fill="#1a2234" stroke="#fbbf24" stroke-width="3"/>
<text x="590" y="372" text-anchor="middle" font-size="22" fill="#fbbf24">trust</text>
<rect x="762" y="312" width="240" height="96" rx="14" fill="#111827" stroke="#f59e0b" stroke-width="3"/>
<text x="882" y="352" text-anchor="middle" font-size="24" fill="#f8fafc">agent authors</text>
<text x="882" y="382" text-anchor="middle" font-size="22" fill="#9ca3af">files only</text>
<circle cx="1130" cy="360" r="48" fill="#0a0e1a" stroke="#f59e0b" stroke-width="3"/>
<circle cx="1130" cy="318" r="12" fill="#f59e0b"/><circle cx="1130" cy="402" r="12" fill="#f59e0b"/>
<path d="M1130 330 V390" stroke="#f59e0b" stroke-width="4"/>
<text x="1130" y="470" text-anchor="middle" font-size="24" fill="#cbd5e1">draft PR</text>
  </g>
  <text x="112" y="688" font-family="ui-sans-serif,system-ui,Segoe UI,Helvetica,Arial" font-size="30" letter-spacing="6" font-weight="700" fill="url(#amber)">AGENTIC CI</text>
  <text x="106" y="788" font-family="Georgia,Times New Roman,serif" font-size="76" font-weight="700" fill="#f8fafc">Voice to Prototype</text>
</svg>
